<svg width="70" height="58" viewBox="0 0 70 58" fill="none" xmlns="http://www.w3.org/2000/svg">
<path d="M12.3488 20.36H17.9878L18.8547 46.28H11.5986L12.3488 20.36ZM7.64 47.72H62.36V50.6H66.68V54.92H69.56V57.8H0.440002V54.92H3.32V50.6H7.64V47.72ZM65.24 12.8893L35.0029 0.200012L4.76 12.8893V14.6H65.24V12.8893ZM10.52 16.04H59.48V18.92H10.52V16.04ZM51.8998 20.36H57.536L58.4101 46.28H51.1438L51.8998 20.36ZM38.721 20.36H44.3571L45.2211 46.28H37.9621L38.721 20.36ZM25.5392 20.36H31.1768L32.035 46.28H24.7789L25.5392 20.36Z" fill="black"/>
</svg>
