<svg width="72" height="72" viewBox="0 0 72 72" fill="none" xmlns="http://www.w3.org/2000/svg">
<path d="M13.5 13.5C9.79875 13.5 6.75 16.5488 6.75 20.25V35.5073C5.3775 36.747 4.5 38.5222 4.5 40.5V60.75H15.75V56.25H56.25V60.75H67.5V40.5C67.5 38.5222 66.6225 36.747 65.25 35.5073V20.25C65.25 16.5488 62.2012 13.5 58.5 13.5H13.5ZM13.5 18H58.5C59.7488 18 60.75 19.0012 60.75 20.25V33.75H56.25V31.5C56.25 27.7988 53.2012 24.75 49.5 24.75H40.5C38.7765 24.75 37.1948 25.425 36 26.5073C34.77 25.3834 33.1661 24.7571 31.5 24.75H22.5C18.7988 24.75 15.75 27.7988 15.75 31.5V33.75H11.25V20.25C11.25 19.0012 12.2512 18 13.5 18ZM22.5 29.25H31.5C32.7488 29.25 33.75 30.2512 33.75 31.5V33.75H20.25V31.5C20.25 30.2512 21.2512 29.25 22.5 29.25ZM40.5 29.25H49.5C50.7488 29.25 51.75 30.2512 51.75 31.5V33.75H38.25V31.5C38.25 30.2512 39.2512 29.25 40.5 29.25ZM11.25 38.25H60.75C61.9988 38.25 63 39.2512 63 40.5V56.25H60.75V51.75H11.25V56.25H9V40.5C9 39.2512 10.0012 38.25 11.25 38.25Z" fill="black"/>
</svg>
