<svg width="72" height="72" viewBox="0 0 72 72" fill="none" xmlns="http://www.w3.org/2000/svg">
<path d="M36 6.54546C19.7673 6.54546 6.54546 19.7673 6.54546 36C6.54546 47.7295 13.5033 57.8095 23.4589 62.5418L16.3636 72H55.6364L48.5411 62.5418C58.4967 57.8095 65.4545 47.7295 65.4545 36C65.4545 19.7673 52.2327 6.54546 36 6.54546ZM35.1818 13.1695V26.2211C33.1469 26.3917 31.2159 27.1925 29.6575 28.512L20.4218 19.2567C24.4454 15.5069 29.6913 13.3421 35.1884 13.1629L35.1818 13.1695ZM36.8182 13.1695C42.5389 13.3658 47.6836 15.6371 51.5847 19.2633L42.3425 28.512L42.3295 28.4989C40.773 27.1866 38.847 26.3906 36.8182 26.2211V13.1695V13.1695ZM19.2633 20.4153L28.5055 29.6575C28.5055 29.6575 28.5055 29.6705 28.4924 29.6705C27.1824 31.2279 26.3887 33.1537 26.2211 35.1818H13.1695C13.3658 29.4611 15.6371 24.3164 19.2633 20.4153ZM52.7367 20.4153C56.3629 24.3164 58.6276 29.4611 58.8305 35.1818H45.7789C45.6083 33.1469 44.8075 31.2159 43.488 29.6575L52.7433 20.4218L52.7367 20.4153ZM13.1695 36.8182H26.2211C26.3917 38.8531 27.1925 40.7841 28.512 42.3425L19.2567 51.5782C15.5069 47.5546 13.3421 42.3087 13.1629 36.8116L13.1695 36.8182ZM45.7789 36.8182H58.8305C58.652 42.3154 56.487 47.5615 52.7367 51.5847L43.488 42.3425L43.5011 42.3295C44.8134 40.773 45.6094 38.847 45.7789 36.8182V36.8182ZM29.6575 43.4945C29.6575 43.4945 29.6705 43.4945 29.6705 43.5076C30.5773 44.2626 31.6128 44.848 32.7273 45.2356V58.5884C28.1225 57.9413 23.8272 55.8965 20.4218 52.7302L29.6509 43.488L29.6575 43.4945ZM42.3425 43.4945L51.5782 52.7302C48.1719 55.8941 43.8768 57.9366 39.2727 58.5818V45.2422C40.3937 44.848 41.4339 44.2537 42.3425 43.488V43.4945Z" fill="black"/>
</svg>
