<svg width="72" height="72" viewBox="0 0 72 72" fill="none" xmlns="http://www.w3.org/2000/svg">
<path d="M18 40.5C20.4853 40.5 22.5 38.4853 22.5 36C22.5 33.5147 20.4853 31.5 18 31.5C15.5147 31.5 13.5 33.5147 13.5 36C13.5 38.4853 15.5147 40.5 18 40.5Z" fill="black"/>
<path d="M36 40.5C38.4853 40.5 40.5 38.4853 40.5 36C40.5 33.5147 38.4853 31.5 36 31.5C33.5147 31.5 31.5 33.5147 31.5 36C31.5 38.4853 33.5147 40.5 36 40.5Z" fill="black"/>
<path d="M54 40.5C56.4853 40.5 58.5 38.4853 58.5 36C58.5 33.5147 56.4853 31.5 54 31.5C51.5147 31.5 49.5 33.5147 49.5 36C49.5 38.4853 51.5147 40.5 54 40.5Z" fill="black"/>
</svg>
