<svg width="72" height="72" viewBox="0 0 72 72" fill="none" xmlns="http://www.w3.org/2000/svg">
<path d="M54 12H18C14.6863 12 12 14.6863 12 18V54C12 57.3137 14.6863 60 18 60H54C57.3137 60 60 57.3137 60 54V18C60 14.6863 57.3137 12 54 12Z" stroke="black" stroke-width="2" stroke-linecap="round" stroke-linejoin="round"/>
<path d="M27 48V24H39C40.5913 24 42.1174 24.6321 43.2426 25.7574C44.3679 26.8826 45 28.4087 45 30C45 31.5913 44.3679 33.1174 43.2426 34.2426C42.1174 35.3679 40.5913 36 39 36H27" stroke="black" stroke-width="2" stroke-linecap="round" stroke-linejoin="round"/>
</svg>
