<svg width="72" height="72" viewBox="0 0 72 72" fill="none" xmlns="http://www.w3.org/2000/svg">
<path d="M12 6V60H9V66H21V60H18V45H57C57.7956 45 58.5587 44.6839 59.1213 44.1213C59.6839 43.5587 60 42.7956 60 42V12C60 11.2044 59.6839 10.4413 59.1213 9.87868C58.5587 9.31607 57.7956 9 57 9H18V6H12ZM24 15V21H30V15H36V21H42V15H48V21H54V27H48V33H54V39H48V33H42V39H36V33H30V39H24V33H18V27H24V21H18V15H24Z" fill="black"/>
<path d="M24 27H30V33H24V27ZM36 27H42V33H36V27ZM30 21H36V27H30V21ZM42 21H48V27H42V21Z" fill="black"/>
</svg>
