<svg width="72" height="72" viewBox="0 0 72 72" fill="none" xmlns="http://www.w3.org/2000/svg">
<path d="M25.5 48C27.9853 48 30 45.9853 30 43.5C30 41.0147 27.9853 39 25.5 39C23.0147 39 21 41.0147 21 43.5C21 45.9853 23.0147 48 25.5 48Z" fill="black"/>
<path d="M46.5 48C48.9853 48 51 45.9853 51 43.5C51 41.0147 48.9853 39 46.5 39C44.0147 39 42 41.0147 42 43.5C42 45.9853 44.0147 48 46.5 48Z" fill="black"/>
<path d="M56.613 10.005C53.145 6.111 49.527 6 49.125 6H22.863C22.191 6 18.666 6.195 15.354 10.053C12.093 13.848 12 17.586 12 18V54C12 54.7956 12.3161 55.5587 12.8787 56.1213C13.4413 56.6839 14.2044 57 15 57H21L15 66H21.951L23.952 63H47.952L49.983 66H57L51 57H57C57.7957 57 58.5587 56.6839 59.1213 56.1213C59.6839 55.5587 60 54.7956 60 54V18C60.003 17.439 59.904 13.698 56.613 10.005ZM22.875 12L49.008 11.997C49.068 12.003 50.481 12.144 52.131 13.995C52.437 14.337 52.677 14.673 52.89 15H19.17C19.386 14.661 19.599 14.319 19.908 13.959C21.489 12.117 22.872 12.003 22.875 12V12ZM18 24V21H54V30H18V24ZM54 51H18V36H54V51Z" fill="black"/>
</svg>
